<svg xmlns="http://www.w3.org/2000/svg" width="55" height="13" fill="none" viewBox="0 0 55 13"><mask id="path-1-outside-1_2937_4368" width="55" height="13" x="0" y="0" fill="#000" maskUnits="userSpaceOnUse"><rect width="55" height="13" fill="#fff"/><path d="M3.0625 1.5C3.34375 1.51042 3.58333 1.61458 3.78125 1.8125C3.97917 2 4.08333 2.23438 4.09375 2.51562V10.1719C4.03125 10.7969 3.6875 11.1354 3.0625 11.1875C2.77083 11.1875 2.51562 11.0938 2.29688 10.9062C2.08854 10.7083 1.98438 10.4635 1.98438 10.1719V2.51562C1.99479 2.22396 2.10417 1.98438 2.3125 1.79688C2.52083 1.59896 2.77083 1.5 3.0625 1.5ZM5.04688 5.85938C5.34896 5.36979 5.92708 5.01042 6.78125 4.78125L10.7969 3.70312C11.0781 3.61979 11.3438 3.64583 11.5938 3.78125C11.8542 3.90625 12.026 4.10938 12.1094 4.39062C12.2031 4.66146 12.1823 4.92708 12.0469 5.1875C11.9219 5.4375 11.7188 5.60938 11.4375 5.70312L7.15625 6.8125C6.85417 6.92708 6.70833 7.125 6.71875 7.40625C6.70833 7.6875 6.85417 7.88542 7.15625 8L11.4375 9.10938C11.7188 9.20312 11.9219 9.38021 12.0469 9.64062C12.1823 9.89062 12.2031 10.151 12.1094 10.4219C12.026 10.7031 11.8542 10.9062 11.5938 11.0312C11.3438 11.1667 11.0781 11.1927 10.7969 11.1094L6.78125 10.0312C5.91667 9.79167 5.33333 9.42708 5.03125 8.9375C4.73958 8.44792 4.59375 7.9375 4.59375 7.40625C4.59375 6.875 4.74479 6.35938 5.04688 5.85938ZM22.5312 10.1406V6.375C22.5312 6.11458 22.3958 5.97917 22.125 5.96875H16.6562C16.4583 5.97917 16.2865 6.06771 16.1406 6.23438C15.9948 6.39062 15.8854 6.57812 15.8125 6.79688C15.75 7.00521 15.7188 7.21875 15.7188 7.4375C15.7188 7.64583 15.75 7.85938 15.8125 8.07812C15.8854 8.28646 15.9948 8.47396 16.1406 8.64062C16.2865 8.79688 16.4583 8.875 16.6562 8.875H20.6562C20.9479 8.875 21.1927 8.97917 21.3906 9.1875C21.599 9.38542 21.7031 9.63021 21.7031 9.92188C21.7031 10.2135 21.599 10.4583 21.3906 10.6562C21.1927 10.8646 20.9479 10.9688 20.6562 10.9688H16.7188C15.9896 10.9583 15.3854 10.7552 14.9062 10.3594C14.4375 9.95312 14.099 9.5 13.8906 9C13.6927 8.48958 13.5938 7.96354 13.5938 7.42188C13.5938 6.90104 13.6979 6.39062 13.9062 5.89062C14.1146 5.38021 14.4531 4.92708 14.9219 4.53125C15.3906 4.125 16.0833 3.90625 17 3.875H23.5625C23.8542 3.875 24.1042 3.97396 24.3125 4.17188C24.5208 4.35938 24.6302 4.59896 24.6406 4.89062V10.1406C24.6406 10.4323 24.5312 10.6771 24.3125 10.875C24.1042 11.0625 23.8542 11.1562 23.5625 11.1562C22.9375 11.1042 22.5938 10.7656 22.5312 10.1406Z"/><path d="M27.7344 1.5C28.0156 1.51042 28.2552 1.61458 28.4531 1.8125C28.651 2 28.7552 2.23438 28.7656 2.51562V10.1719C28.7031 10.7969 28.3594 11.1354 27.7344 11.1875C27.4427 11.1875 27.1875 11.0938 26.9688 10.9062C26.7604 10.7083 26.6562 10.4635 26.6562 10.1719V2.51562C26.6667 2.22396 26.776 1.98438 26.9844 1.79688C27.1927 1.59896 27.4427 1.5 27.7344 1.5ZM33.9531 10.9688C33.0365 10.9375 32.3438 10.724 31.875 10.3281C31.4062 9.92188 31.0677 9.46875 30.8594 8.96875C30.651 8.45833 30.5469 7.94271 30.5469 7.42188C30.5469 6.88021 30.6458 6.35938 30.8438 5.85938C31.0521 5.34896 31.3906 4.89583 31.8594 4.5C32.3385 4.09375 32.9427 3.88542 33.6719 3.875H39.6094C39.901 3.875 40.1458 3.97396 40.3438 4.17188C40.5521 4.35938 40.6562 4.58854 40.6562 4.85938C40.6562 5.14062 40.5521 5.38021 40.3438 5.57812C40.1458 5.76562 39.901 5.85938 39.6094 5.85938H33.7656C33.5365 5.85938 33.3333 5.9375 33.1562 6.09375C32.9896 6.25 32.8646 6.45312 32.7812 6.70312C32.7083 6.95312 32.6719 7.19792 32.6719 7.4375C32.6719 7.69792 32.7083 7.95312 32.7812 8.20312C32.8646 8.45312 32.9896 8.65625 33.1562 8.8125C33.3333 8.95833 33.5365 9.03646 33.7656 9.04688H39.6094C39.901 9.04688 40.1458 9.14062 40.3438 9.32812C40.5521 9.51562 40.6562 9.73958 40.6562 10C40.6562 10.2708 40.5521 10.5 40.3438 10.6875C40.1458 10.875 39.901 10.9688 39.6094 10.9688H33.9531ZM40.4688 7.39062C40.4688 7.58854 40.3802 7.76042 40.2031 7.90625C40.0469 8.04167 39.849 8.10938 39.6094 8.10938H34.5C34.2604 8.10938 34.0573 8.04167 33.8906 7.90625C33.724 7.76042 33.6406 7.58854 33.6406 7.39062C33.6406 7.20312 33.724 7.03646 33.8906 6.89062C34.0573 6.75521 34.2604 6.6875 34.5 6.6875H39.6094C39.849 6.6875 40.0521 6.76042 40.2188 6.90625C40.3854 7.04167 40.4688 7.20312 40.4688 7.39062ZM45.7656 3.64062C46.1302 3.64062 46.4844 3.70312 46.8281 3.82812C47.1823 3.95312 47.5208 4.13542 47.8438 4.375C47.8958 4.42708 47.9531 4.47917 48.0156 4.53125C48.0677 4.47917 48.125 4.42708 48.1875 4.375C48.5104 4.13542 48.8438 3.95312 49.1875 3.82812C49.5417 3.70312 49.8958 3.64062 50.25 3.64062C50.6146 3.64062 50.9688 3.70312 51.3125 3.82812C51.6667 3.95312 52 4.14062 52.3125 4.39062C52.6354 4.63021 52.9167 4.95312 53.1562 5.35938C53.4062 5.76562 53.5312 6.25 53.5312 6.8125V10.1406C53.4688 10.7656 53.125 11.1042 52.5 11.1562C52.2083 11.1562 51.9531 11.0625 51.7344 10.875C51.526 10.6771 51.4219 10.4323 51.4219 10.1406V6.9375C51.4219 6.6875 51.375 6.47917 51.2812 6.3125C51.1875 6.13542 51.0833 6 50.9688 5.90625C50.8542 5.80208 50.7344 5.72917 50.6094 5.6875C50.4844 5.63542 50.3594 5.60938 50.2344 5.60938C50.1094 5.60938 49.9844 5.63542 49.8594 5.6875C49.7448 5.72917 49.6302 5.80208 49.5156 5.90625C49.401 6 49.2969 6.13542 49.2031 6.3125C49.1094 6.47917 49.0573 6.6875 49.0469 6.9375V10.1406C48.9844 10.7656 48.6406 11.1042 48.0156 11.1562C47.724 11.1562 47.4688 11.0625 47.25 10.875C47.0417 10.6771 46.9375 10.4323 46.9375 10.1406V6.9375C46.9375 6.6875 46.8906 6.47917 46.7969 6.3125C46.7031 6.13542 46.599 6 46.4844 5.90625C46.3698 5.80208 46.25 5.72917 46.125 5.6875C46 5.63542 45.875 5.60938 45.75 5.60938C45.625 5.60938 45.5 5.63542 45.375 5.6875C45.2604 5.72917 45.1458 5.80208 45.0312 5.90625C44.9167 6 44.8125 6.13542 44.7188 6.3125C44.625 6.47917 44.5729 6.6875 44.5625 6.9375V10.1406C44.5104 10.7656 44.1719 11.1042 43.5469 11.1562C43.2552 11.1562 43 11.0625 42.7812 10.875C42.5729 10.6771 42.4688 10.4323 42.4688 10.1406V6.8125C42.4896 6.25 42.6198 5.76562 42.8594 5.35938C43.099 4.95312 43.3802 4.63021 43.7031 4.39062C44.026 4.14062 44.3594 3.95312 44.7031 3.82812C45.0573 3.70312 45.4115 3.64062 45.7656 3.64062Z"/></mask><path fill="#8B42A8" d="M3.0625 1.5C3.34375 1.51042 3.58333 1.61458 3.78125 1.8125C3.97917 2 4.08333 2.23438 4.09375 2.51562V10.1719C4.03125 10.7969 3.6875 11.1354 3.0625 11.1875C2.77083 11.1875 2.51562 11.0938 2.29688 10.9062C2.08854 10.7083 1.98438 10.4635 1.98438 10.1719V2.51562C1.99479 2.22396 2.10417 1.98438 2.3125 1.79688C2.52083 1.59896 2.77083 1.5 3.0625 1.5ZM5.04688 5.85938C5.34896 5.36979 5.92708 5.01042 6.78125 4.78125L10.7969 3.70312C11.0781 3.61979 11.3438 3.64583 11.5938 3.78125C11.8542 3.90625 12.026 4.10938 12.1094 4.39062C12.2031 4.66146 12.1823 4.92708 12.0469 5.1875C11.9219 5.4375 11.7188 5.60938 11.4375 5.70312L7.15625 6.8125C6.85417 6.92708 6.70833 7.125 6.71875 7.40625C6.70833 7.6875 6.85417 7.88542 7.15625 8L11.4375 9.10938C11.7188 9.20312 11.9219 9.38021 12.0469 9.64062C12.1823 9.89062 12.2031 10.151 12.1094 10.4219C12.026 10.7031 11.8542 10.9062 11.5938 11.0312C11.3438 11.1667 11.0781 11.1927 10.7969 11.1094L6.78125 10.0312C5.91667 9.79167 5.33333 9.42708 5.03125 8.9375C4.73958 8.44792 4.59375 7.9375 4.59375 7.40625C4.59375 6.875 4.74479 6.35938 5.04688 5.85938ZM22.5312 10.1406V6.375C22.5312 6.11458 22.3958 5.97917 22.125 5.96875H16.6562C16.4583 5.97917 16.2865 6.06771 16.1406 6.23438C15.9948 6.39062 15.8854 6.57812 15.8125 6.79688C15.75 7.00521 15.7188 7.21875 15.7188 7.4375C15.7188 7.64583 15.75 7.85938 15.8125 8.07812C15.8854 8.28646 15.9948 8.47396 16.1406 8.64062C16.2865 8.79688 16.4583 8.875 16.6562 8.875H20.6562C20.9479 8.875 21.1927 8.97917 21.3906 9.1875C21.599 9.38542 21.7031 9.63021 21.7031 9.92188C21.7031 10.2135 21.599 10.4583 21.3906 10.6562C21.1927 10.8646 20.9479 10.9688 20.6562 10.9688H16.7188C15.9896 10.9583 15.3854 10.7552 14.9062 10.3594C14.4375 9.95312 14.099 9.5 13.8906 9C13.6927 8.48958 13.5938 7.96354 13.5938 7.42188C13.5938 6.90104 13.6979 6.39062 13.9062 5.89062C14.1146 5.38021 14.4531 4.92708 14.9219 4.53125C15.3906 4.125 16.0833 3.90625 17 3.875H23.5625C23.8542 3.875 24.1042 3.97396 24.3125 4.17188C24.5208 4.35938 24.6302 4.59896 24.6406 4.89062V10.1406C24.6406 10.4323 24.5312 10.6771 24.3125 10.875C24.1042 11.0625 23.8542 11.1562 23.5625 11.1562C22.9375 11.1042 22.5938 10.7656 22.5312 10.1406Z"/><path fill="#E85AAD" d="M27.7344 1.5C28.0156 1.51042 28.2552 1.61458 28.4531 1.8125C28.651 2 28.7552 2.23438 28.7656 2.51562V10.1719C28.7031 10.7969 28.3594 11.1354 27.7344 11.1875C27.4427 11.1875 27.1875 11.0938 26.9688 10.9062C26.7604 10.7083 26.6562 10.4635 26.6562 10.1719V2.51562C26.6667 2.22396 26.776 1.98438 26.9844 1.79688C27.1927 1.59896 27.4427 1.5 27.7344 1.5ZM33.9531 10.9688C33.0365 10.9375 32.3438 10.724 31.875 10.3281C31.4062 9.92188 31.0677 9.46875 30.8594 8.96875C30.651 8.45833 30.5469 7.94271 30.5469 7.42188C30.5469 6.88021 30.6458 6.35938 30.8438 5.85938C31.0521 5.34896 31.3906 4.89583 31.8594 4.5C32.3385 4.09375 32.9427 3.88542 33.6719 3.875H39.6094C39.901 3.875 40.1458 3.97396 40.3438 4.17188C40.5521 4.35938 40.6562 4.58854 40.6562 4.85938C40.6562 5.14062 40.5521 5.38021 40.3438 5.57812C40.1458 5.76562 39.901 5.85938 39.6094 5.85938H33.7656C33.5365 5.85938 33.3333 5.9375 33.1562 6.09375C32.9896 6.25 32.8646 6.45312 32.7812 6.70312C32.7083 6.95312 32.6719 7.19792 32.6719 7.4375C32.6719 7.69792 32.7083 7.95312 32.7812 8.20312C32.8646 8.45312 32.9896 8.65625 33.1562 8.8125C33.3333 8.95833 33.5365 9.03646 33.7656 9.04688H39.6094C39.901 9.04688 40.1458 9.14062 40.3438 9.32812C40.5521 9.51562 40.6562 9.73958 40.6562 10C40.6562 10.2708 40.5521 10.5 40.3438 10.6875C40.1458 10.875 39.901 10.9688 39.6094 10.9688H33.9531ZM40.4688 7.39062C40.4688 7.58854 40.3802 7.76042 40.2031 7.90625C40.0469 8.04167 39.849 8.10938 39.6094 8.10938H34.5C34.2604 8.10938 34.0573 8.04167 33.8906 7.90625C33.724 7.76042 33.6406 7.58854 33.6406 7.39062C33.6406 7.20312 33.724 7.03646 33.8906 6.89062C34.0573 6.75521 34.2604 6.6875 34.5 6.6875H39.6094C39.849 6.6875 40.0521 6.76042 40.2188 6.90625C40.3854 7.04167 40.4688 7.20312 40.4688 7.39062ZM45.7656 3.64062C46.1302 3.64062 46.4844 3.70312 46.8281 3.82812C47.1823 3.95312 47.5208 4.13542 47.8438 4.375C47.8958 4.42708 47.9531 4.47917 48.0156 4.53125C48.0677 4.47917 48.125 4.42708 48.1875 4.375C48.5104 4.13542 48.8438 3.95312 49.1875 3.82812C49.5417 3.70312 49.8958 3.64062 50.25 3.64062C50.6146 3.64062 50.9688 3.70312 51.3125 3.82812C51.6667 3.95312 52 4.14062 52.3125 4.39062C52.6354 4.63021 52.9167 4.95312 53.1562 5.35938C53.4062 5.76562 53.5312 6.25 53.5312 6.8125V10.1406C53.4688 10.7656 53.125 11.1042 52.5 11.1562C52.2083 11.1562 51.9531 11.0625 51.7344 10.875C51.526 10.6771 51.4219 10.4323 51.4219 10.1406V6.9375C51.4219 6.6875 51.375 6.47917 51.2812 6.3125C51.1875 6.13542 51.0833 6 50.9688 5.90625C50.8542 5.80208 50.7344 5.72917 50.6094 5.6875C50.4844 5.63542 50.3594 5.60938 50.2344 5.60938C50.1094 5.60938 49.9844 5.63542 49.8594 5.6875C49.7448 5.72917 49.6302 5.80208 49.5156 5.90625C49.401 6 49.2969 6.13542 49.2031 6.3125C49.1094 6.47917 49.0573 6.6875 49.0469 6.9375V10.1406C48.9844 10.7656 48.6406 11.1042 48.0156 11.1562C47.724 11.1562 47.4688 11.0625 47.25 10.875C47.0417 10.6771 46.9375 10.4323 46.9375 10.1406V6.9375C46.9375 6.6875 46.8906 6.47917 46.7969 6.3125C46.7031 6.13542 46.599 6 46.4844 5.90625C46.3698 5.80208 46.25 5.72917 46.125 5.6875C46 5.63542 45.875 5.60938 45.75 5.60938C45.625 5.60938 45.5 5.63542 45.375 5.6875C45.2604 5.72917 45.1458 5.80208 45.0312 5.90625C44.9167 6 44.8125 6.13542 44.7188 6.3125C44.625 6.47917 44.5729 6.6875 44.5625 6.9375V10.1406C44.5104 10.7656 44.1719 11.1042 43.5469 11.1562C43.2552 11.1562 43 11.0625 42.7812 10.875C42.5729 10.6771 42.4688 10.4323 42.4688 10.1406V6.8125C42.4896 6.25 42.6198 5.76562 42.8594 5.35938C43.099 4.95312 43.3802 4.63021 43.7031 4.39062C44.026 4.14062 44.3594 3.95312 44.7031 3.82812C45.0573 3.70312 45.4115 3.64062 45.7656 3.64062Z"/><path fill="#AB1870" fill-opacity=".15" d="M3.0625 1.5L3.09951 0.500685L3.08101 0.5H3.0625V1.5ZM3.78125 1.8125L3.07414 2.51961L3.0837 2.52916L3.09351 2.53845L3.78125 1.8125ZM4.09375 2.51562H5.09375V2.49711L5.09306 2.47861L4.09375 2.51562ZM4.09375 10.1719L5.08879 10.2714L5.09375 10.2218V10.1719H4.09375ZM3.0625 11.1875V12.1875H3.10409L3.14555 12.184L3.0625 11.1875ZM2.29688 10.9062L1.60813 11.6312L1.62667 11.6489L1.64608 11.6655L2.29688 10.9062ZM1.98438 2.51562L0.985012 2.47993L0.984375 2.49777V2.51562H1.98438ZM2.3125 1.79688L2.98146 2.54017L2.99148 2.53116L3.00125 2.52187L2.3125 1.79688ZM5.04688 5.85938L4.1958 5.33424L4.19096 5.34226L5.04688 5.85938ZM6.78125 4.78125L7.04038 5.74709L7.04055 5.74705L6.78125 4.78125ZM10.7969 3.70312L11.0562 4.66892L11.0686 4.66558L11.081 4.66192L10.7969 3.70312ZM11.5938 3.78125L11.1175 4.66054L11.139 4.67219L11.161 4.68277L11.5938 3.78125ZM12.1094 4.39062L11.1506 4.67471L11.157 4.69638L11.1644 4.71774L12.1094 4.39062ZM12.0469 5.1875L11.1597 4.72615L11.156 4.73319L11.1524 4.74029L12.0469 5.1875ZM11.4375 5.70312L11.6883 6.67115L11.7214 6.6626L11.7537 6.65181L11.4375 5.70312ZM7.15625 6.8125L6.90541 5.84447L6.8526 5.85816L6.8016 5.8775L7.15625 6.8125ZM6.71875 7.40625L7.71806 7.44326L7.71944 7.40625L7.71806 7.36924L6.71875 7.40625ZM7.15625 8L6.8016 8.935L6.8526 8.95434L6.90541 8.96803L7.15625 8ZM11.4375 9.10938L11.7537 8.16069L11.7214 8.1499L11.6883 8.14135L11.4375 9.10938ZM12.0469 9.64062L11.1454 10.0734L11.1559 10.0954L11.1676 10.1169L12.0469 9.64062ZM12.1094 10.4219L11.1644 10.0948L11.157 10.1161L11.1506 10.1378L12.1094 10.4219ZM11.5938 11.0312L11.161 10.1297L11.139 10.1403L11.1175 10.152L11.5938 11.0312ZM10.7969 11.1094L11.081 10.1506L11.0686 10.1469L11.0562 10.1436L10.7969 11.1094ZM6.78125 10.0312L6.5142 10.995L6.52195 10.997L6.78125 10.0312ZM5.03125 8.9375L4.17215 9.44931L4.17613 9.45599L4.18021 9.46261L5.03125 8.9375ZM3.0625 1.5L3.02549 2.49931C3.03925 2.49982 3.04728 2.50127 3.05076 2.50204C3.0541 2.50277 3.05494 2.50324 3.0544 2.50301C3.05385 2.50277 3.05449 2.50294 3.05681 2.50454C3.05924 2.50622 3.06513 2.5106 3.07414 2.51961L3.78125 1.8125L4.48836 1.10539C4.11086 0.7279 3.63145 0.520387 3.09951 0.500685L3.0625 1.5ZM3.78125 1.8125L3.09351 2.53845C3.09907 2.54372 3.10022 2.54573 3.09905 2.5441C3.09781 2.54236 3.09581 2.53911 3.094 2.53504C3.09221 2.53102 3.09186 2.52901 3.09217 2.53041C3.09252 2.53199 3.09393 2.53894 3.09444 2.55264L4.09375 2.51562L5.09306 2.47861C5.07331 1.94521 4.86367 1.46045 4.46899 1.08655L3.78125 1.8125ZM4.09375 2.51562H3.09375V10.1719H4.09375H5.09375V2.51562H4.09375ZM4.09375 10.1719L3.09871 10.0724C3.0911 10.1485 3.07774 10.1864 3.07269 10.1984C3.06878 10.2077 3.07182 10.1974 3.08737 10.182C3.10295 10.1667 3.11347 10.1637 3.10455 10.1673C3.09289 10.172 3.0552 10.1846 2.97945 10.191L3.0625 11.1875L3.14555 12.184C3.62016 12.1445 4.1077 11.9843 4.49075 11.607C4.87364 11.2299 5.04142 10.745 5.08879 10.2714L4.09375 10.1719ZM3.0625 11.1875V10.1875C3.00631 10.1875 2.98273 10.177 2.94767 10.147L2.29688 10.9062L1.64608 11.6655C2.04852 12.0105 2.53536 12.1875 3.0625 12.1875V11.1875ZM2.29688 10.9062L2.98562 10.1813C2.97818 10.1742 2.9762 10.171 2.97712 10.1723C2.97816 10.1738 2.98045 10.1775 2.98265 10.1827C2.98367 10.1851 2.98442 10.1872 2.98494 10.1889C2.98545 10.1906 2.98561 10.1914 2.98557 10.1912C2.98553 10.191 2.98438 10.1851 2.98438 10.1719H1.98438H0.984375C0.984375 10.733 1.19771 11.2414 1.60813 11.6312L2.29688 10.9062ZM1.98438 10.1719H2.98438V2.51562H1.98438H0.984375V10.1719H1.98438ZM1.98438 2.51562L2.98374 2.55132C2.98428 2.53603 2.98587 2.52831 2.98625 2.52661C2.98658 2.52513 2.98613 2.52762 2.98391 2.53248C2.98166 2.5374 2.97907 2.54155 2.97715 2.54413C2.97532 2.54658 2.97598 2.54511 2.98146 2.54017L2.3125 1.79688L1.64354 1.05358C1.22458 1.43064 1.00466 1.92991 0.985012 2.47993L1.98438 2.51562ZM2.3125 1.79688L3.00125 2.52187C3.01093 2.51268 3.01734 2.50817 3.02021 2.50631C3.02296 2.50452 3.02412 2.5041 3.0243 2.50403C3.02449 2.50395 3.02642 2.50316 3.03128 2.50227C3.0363 2.50135 3.04631 2.5 3.0625 2.5V1.5V0.5C2.51877 0.5 2.02102 0.694474 1.62375 1.07188L2.3125 1.79688ZM5.04688 5.85938L5.89791 6.38448C6.00966 6.20337 6.30415 5.94462 7.04038 5.74709L6.78125 4.78125L6.52212 3.81541C5.55002 4.07622 4.68825 4.53622 4.19584 5.33427L5.04688 5.85938ZM6.78125 4.78125L7.04055 5.74705L11.0562 4.66892L10.7969 3.70312L10.5376 2.73733L6.52195 3.81545L6.78125 4.78125ZM10.7969 3.70312L11.081 4.66192C11.0964 4.65734 11.1056 4.65606 11.1091 4.65569C11.1124 4.65534 11.1121 4.65565 11.1095 4.65538C11.1083 4.65527 11.1071 4.65509 11.106 4.65487C11.105 4.65466 11.1044 4.65448 11.1045 4.6545C11.1046 4.65453 11.1056 4.65485 11.1076 4.65571C11.1097 4.65658 11.1129 4.65809 11.1175 4.66054L11.5938 3.78125L12.07 2.90196C11.579 2.63597 11.039 2.58841 10.5128 2.74433L10.7969 3.70312ZM11.5938 3.78125L11.161 4.68277C11.1693 4.68676 11.1708 4.68838 11.1679 4.68618C11.1648 4.68384 11.1598 4.67946 11.1546 4.67329C11.1494 4.66713 11.1465 4.66223 11.1456 4.66047C11.1448 4.65894 11.1471 4.66291 11.1506 4.67471L12.1094 4.39062L13.0682 4.10654C12.906 3.55919 12.5461 3.12913 12.0265 2.87973L11.5938 3.78125ZM12.1094 4.39062L11.1644 4.71774C11.1675 4.72662 11.1676 4.72961 11.1673 4.72746C11.167 4.72511 11.1667 4.72047 11.1671 4.71478C11.1676 4.70912 11.1685 4.70603 11.1683 4.70648C11.1681 4.70715 11.1662 4.71361 11.1597 4.72615L12.0469 5.1875L12.9341 5.64885C13.1928 5.15136 13.2404 4.60095 13.0544 4.06351L12.1094 4.39062ZM12.0469 5.1875L11.1524 4.74029C11.1493 4.74658 11.1479 4.74798 11.1491 4.74641C11.1504 4.74474 11.1525 4.74246 11.1548 4.74052C11.1571 4.73864 11.157 4.73911 11.153 4.74135C11.1487 4.74369 11.1388 4.7486 11.1213 4.75444L11.4375 5.70312L11.7537 6.65181C12.2696 6.47984 12.6899 6.13744 12.9413 5.63471L12.0469 5.1875ZM11.4375 5.70312L11.1867 4.7351L6.90541 5.84447L7.15625 6.8125L7.40709 7.78053L11.6883 6.67115L11.4375 5.70312ZM7.15625 6.8125L6.8016 5.8775C6.52616 5.98198 6.23303 6.15812 6.01526 6.45368C5.78911 6.7606 5.70713 7.11104 5.71944 7.44326L6.71875 7.40625L7.71806 7.36924C7.71995 7.42021 7.70569 7.53107 7.62537 7.64007C7.55343 7.73771 7.48426 7.7576 7.5109 7.7475L7.15625 6.8125ZM6.71875 7.40625L5.71944 7.36924C5.70713 7.70146 5.78911 8.0519 6.01526 8.35882C6.23303 8.65438 6.52616 8.83052 6.8016 8.935L7.15625 8L7.5109 7.065C7.48426 7.0549 7.55343 7.07479 7.62537 7.17243C7.70569 7.28143 7.71995 7.39229 7.71806 7.44326L6.71875 7.40625ZM7.15625 8L6.90541 8.96803L11.1867 10.0774L11.4375 9.10938L11.6883 8.14135L7.40709 7.03197L7.15625 8ZM11.4375 9.10938L11.1213 10.0581C11.1361 10.063 11.1436 10.0669 11.1458 10.0681C11.1478 10.0693 11.1465 10.0688 11.1436 10.0663C11.1408 10.0638 11.1389 10.0615 11.1385 10.0609C11.1381 10.0605 11.1408 10.0639 11.1454 10.0734L12.0469 9.64062L12.9484 9.20789C12.7028 8.6962 12.2843 8.33754 11.7537 8.16069L11.4375 9.10938ZM12.0469 9.64062L11.1676 10.1169C11.1718 10.1247 11.1719 10.1266 11.1708 10.1228C11.1695 10.1188 11.1679 10.1119 11.1672 10.1032C11.1666 10.0945 11.1671 10.0879 11.1675 10.0847C11.1679 10.0818 11.1678 10.0849 11.1644 10.0948L12.1094 10.4219L13.0544 10.749C13.2391 10.2154 13.1964 9.66331 12.9262 9.16434L12.0469 9.64062ZM12.1094 10.4219L11.1506 10.1378C11.1471 10.1496 11.1448 10.1536 11.1456 10.152C11.1465 10.1503 11.1494 10.1454 11.1546 10.1392C11.1598 10.133 11.1648 10.1287 11.1679 10.1263C11.1708 10.1241 11.1693 10.1257 11.161 10.1297L11.5938 11.0312L12.0265 11.9328C12.5461 11.6834 12.906 11.2533 13.0682 10.706L12.1094 10.4219ZM11.5938 11.0312L11.1175 10.152C11.1129 10.1544 11.1097 10.1559 11.1076 10.1568C11.1056 10.1577 11.1046 10.158 11.1045 10.158C11.1044 10.158 11.105 10.1578 11.106 10.1576C11.1071 10.1574 11.1083 10.1572 11.1095 10.1571C11.1121 10.1569 11.1124 10.1572 11.1091 10.1568C11.1056 10.1564 11.0964 10.1552 11.081 10.1506L10.7969 11.1094L10.5128 12.0682C11.039 12.2241 11.579 12.1765 12.07 11.9105L11.5938 11.0312ZM10.7969 11.1094L11.0562 10.1436L7.04055 9.06545L6.78125 10.0312L6.52195 10.997L10.5376 12.0752L10.7969 11.1094ZM6.78125 10.0312L7.04829 9.06757C6.29592 8.85908 5.99472 8.59461 5.88229 8.41239L5.03125 8.9375L4.18021 9.46261C4.67195 10.2596 5.53741 10.7243 6.51421 10.9949L6.78125 10.0312ZM5.03125 8.9375L5.89035 8.42569C5.68395 8.07923 5.59375 7.7442 5.59375 7.40625H4.59375H3.59375C3.59375 8.1308 3.79522 8.8166 4.17215 9.44931L5.03125 8.9375ZM4.59375 7.40625H5.59375C5.59375 7.07514 5.68528 6.7365 5.90279 6.37649L5.04688 5.85938L4.19096 5.34226C3.8043 5.98225 3.59375 6.67486 3.59375 7.40625H4.59375ZM22.5312 10.1406H21.5312V10.1905L21.5362 10.2401L22.5312 10.1406ZM22.125 5.96875L22.1634 4.96949L22.1442 4.96875H22.125V5.96875ZM16.6562 5.96875V4.96875H16.63L16.6037 4.97013L16.6562 5.96875ZM16.1406 6.23438L16.8717 6.91669L16.8826 6.90496L16.8932 6.89288L16.1406 6.23438ZM15.8125 6.79688L14.8638 6.48065L14.859 6.49502L14.8547 6.50953L15.8125 6.79688ZM15.8125 8.07812L14.851 8.35285L14.859 8.38092L14.8686 8.40848L15.8125 8.07812ZM16.1406 8.64062L15.388 9.29913L15.3986 9.31121L15.4096 9.32294L16.1406 8.64062ZM21.3906 9.1875L20.6656 9.87625L20.6833 9.89484L20.7019 9.9125L21.3906 9.1875ZM21.3906 10.6562L20.7019 9.93125L20.6833 9.94891L20.6656 9.9675L21.3906 10.6562ZM16.7188 10.9688L16.7045 11.9686L16.7116 11.9688H16.7188V10.9688ZM14.9062 10.3594L14.2513 11.1151L14.2603 11.1228L14.2694 11.1303L14.9062 10.3594ZM13.8906 9L12.9583 9.36153L12.9628 9.37313L12.9675 9.38462L13.8906 9ZM13.9062 5.89062L14.8294 6.27525L14.8321 6.26852L13.9062 5.89062ZM14.9219 4.53125L15.5671 5.29534L15.5768 5.28694L14.9219 4.53125ZM17 3.875V2.875H16.983L16.9659 2.87558L17 3.875ZM24.3125 4.17188L23.6238 4.89687L23.6335 4.90616L23.6435 4.91517L24.3125 4.17188ZM24.6406 4.89062H25.6406V4.87277L25.64 4.85493L24.6406 4.89062ZM24.3125 10.875L24.9815 11.6183L24.9834 11.6165L24.3125 10.875ZM23.5625 11.1562L23.4795 12.1528L23.5209 12.1562H23.5625V11.1562ZM22.5312 10.1406H23.5312V6.375H22.5312H21.5312V10.1406H22.5312ZM22.5312 6.375H23.5312C23.5312 6.07747 23.4515 5.68569 23.1368 5.37102C22.8287 5.06295 22.4461 4.98036 22.1634 4.96949L22.125 5.96875L22.0866 6.96801C22.0747 6.96755 21.8952 6.95788 21.7226 6.78523C21.5433 6.60598 21.5312 6.41211 21.5312 6.375H22.5312ZM22.125 5.96875V4.96875H16.6562V5.96875V6.96875H22.125V5.96875ZM16.6562 5.96875L16.6037 4.97013C16.1032 4.99648 15.6888 5.23217 15.388 5.57587L16.1406 6.23438L16.8932 6.89288C16.8952 6.89059 16.8778 6.91086 16.8369 6.93194C16.7937 6.95415 16.7476 6.96533 16.7088 6.96737L16.6562 5.96875ZM16.1406 6.23438L15.4096 5.55206C15.1582 5.82138 14.9785 6.13656 14.8638 6.48065L15.8125 6.79688L16.7612 7.1131C16.7923 7.01969 16.8314 6.95987 16.8717 6.91669L16.1406 6.23438ZM15.8125 6.79688L14.8547 6.50953C14.764 6.81162 14.7188 7.12199 14.7188 7.4375H15.7188H16.7188C16.7188 7.31551 16.736 7.1988 16.7703 7.08422L15.8125 6.79688ZM15.7188 7.4375H14.7188C14.7188 7.74686 14.7653 8.0529 14.851 8.35285L15.8125 8.07812L16.774 7.8034C16.7347 7.66585 16.7188 7.54481 16.7188 7.4375H15.7188ZM15.8125 8.07812L14.8686 8.40848C14.9839 8.73782 15.1584 9.03663 15.388 9.29913L16.1406 8.64062L16.8932 7.98212C16.8312 7.91128 16.7869 7.83509 16.7564 7.74777L15.8125 8.07812ZM16.1406 8.64062L15.4096 9.32294C15.7277 9.66375 16.1573 9.875 16.6562 9.875V8.875V7.875C16.693 7.875 16.7424 7.88318 16.7927 7.90604C16.8413 7.92812 16.8667 7.95294 16.8717 7.95831L16.1406 8.64062ZM16.6562 8.875V9.875H20.6562V8.875V7.875H16.6562V8.875ZM20.6562 8.875V9.875C20.6695 9.875 20.6754 9.87616 20.6756 9.8762C20.6758 9.87623 20.6749 9.87607 20.6732 9.87556C20.6716 9.87505 20.6694 9.8743 20.667 9.87328C20.6618 9.87107 20.6582 9.86879 20.6567 9.86775C20.6554 9.86683 20.6586 9.86881 20.6656 9.87625L21.3906 9.1875L22.1156 8.49875C21.7257 8.08834 21.2174 7.875 20.6562 7.875V8.875ZM21.3906 9.1875L20.7019 9.9125C20.7093 9.91957 20.7113 9.92271 20.7104 9.92141C20.7093 9.91994 20.7071 9.91628 20.7048 9.91109C20.7038 9.9087 20.7031 9.90657 20.7026 9.90488C20.7021 9.9032 20.7019 9.90235 20.7019 9.90253C20.702 9.90272 20.7031 9.90867 20.7031 9.92188H21.7031H22.7031C22.7031 9.36075 22.4898 8.85239 22.0794 8.4625L21.3906 9.1875ZM21.7031 9.92188H20.7031C20.7031 9.93508 20.702 9.94103 20.7019 9.94122C20.7019 9.9414 20.7021 9.94055 20.7026 9.93887C20.7031 9.93718 20.7038 9.93505 20.7048 9.93266C20.7071 9.92747 20.7093 9.92381 20.7104 9.92234C20.7113 9.92104 20.7093 9.92418 20.7019 9.93125L21.3906 10.6562L22.0794 11.3812C22.4898 10.9914 22.7031 10.483 22.7031 9.92188H21.7031ZM21.3906 10.6562L20.6656 9.9675C20.6586 9.97494 20.6554 9.97692 20.6567 9.976C20.6582 9.97496 20.6618 9.97268 20.667 9.97047C20.6694 9.96945 20.6716 9.9687 20.6732 9.96819C20.6749 9.96768 20.6758 9.96752 20.6756 9.96755C20.6754 9.96759 20.6695 9.96875 20.6562 9.96875V10.9688V11.9688C21.2174 11.9688 21.7257 11.7554 22.1156 11.345L21.3906 10.6562ZM20.6562 10.9688V9.96875H16.7188V10.9688V11.9688H20.6562V10.9688ZM16.7188 10.9688L16.733 9.96885C16.1902 9.9611 15.8175 9.8151 15.5431 9.58841L14.9062 10.3594L14.2694 11.1303C14.9533 11.6953 15.789 11.9556 16.7045 11.9686L16.7188 10.9688ZM14.9062 10.3594L15.5612 9.60369C15.1923 9.28397 14.9545 8.95319 14.8137 8.61538L13.8906 9L12.9675 9.38462C13.2435 10.0468 13.6827 10.6223 14.2513 11.1151L14.9062 10.3594ZM13.8906 9L14.823 8.63847C14.6693 8.24209 14.5938 7.83854 14.5938 7.42188H13.5938H12.5938C12.5938 8.08854 12.7161 8.73708 12.9583 9.36153L13.8906 9ZM13.5938 7.42188H14.5938C14.5938 7.03835 14.6697 6.65834 14.8293 6.27524L13.9062 5.89062L12.9832 5.50601C12.7261 6.12291 12.5938 6.76374 12.5938 7.42188H13.5938ZM13.9062 5.89062L14.8321 6.26852C14.9728 5.92383 15.2075 5.59889 15.5671 5.29528L14.9219 4.53125L14.2767 3.76722C13.6987 4.25528 13.2564 4.83659 12.9804 5.51273L13.9062 5.89062ZM14.9219 4.53125L15.5768 5.28694C15.8068 5.08763 16.2405 4.90147 17.0341 4.87442L17 3.875L16.9659 2.87558C15.9261 2.91103 14.9745 3.16237 14.2669 3.77556L14.9219 4.53125ZM17 3.875V4.875H23.5625V3.875V2.875H17V3.875ZM23.5625 3.875V4.875C23.5787 4.875 23.5887 4.87635 23.5937 4.87727C23.5986 4.87816 23.6005 4.87895 23.6007 4.87903C23.6009 4.8791 23.602 4.87952 23.6048 4.88131C23.6077 4.88317 23.6141 4.88768 23.6238 4.89687L24.3125 4.17188L25.0012 3.44688C24.604 3.06947 24.1062 2.875 23.5625 2.875V3.875ZM24.3125 4.17188L23.6435 4.91517C23.649 4.92011 23.6497 4.92158 23.6479 4.91913C23.6459 4.91655 23.6433 4.9124 23.6411 4.90748C23.6389 4.90262 23.6384 4.90013 23.6388 4.90161C23.6391 4.90331 23.6407 4.91103 23.6413 4.92632L24.6406 4.89062L25.64 4.85493C25.6203 4.30491 25.4004 3.80564 24.9815 3.42858L24.3125 4.17188ZM24.6406 4.89062H23.6406V10.1406H24.6406H25.6406V4.89062H24.6406ZM24.6406 10.1406H23.6406C23.6406 10.1508 23.6397 10.1536 23.6403 10.1508C23.6409 10.1478 23.6425 10.142 23.6456 10.135C23.6487 10.1281 23.6516 10.1237 23.6527 10.1223C23.6535 10.1211 23.6508 10.1251 23.6416 10.1335L24.3125 10.875L24.9834 11.6165C25.409 11.2315 25.6406 10.7185 25.6406 10.1406H24.6406ZM24.3125 10.875L23.6435 10.1317C23.6276 10.146 23.6198 10.1488 23.6176 10.1496C23.6148 10.1507 23.5995 10.1562 23.5625 10.1562V11.1562V12.1562C24.0902 12.1562 24.5815 11.9783 24.9815 11.6183L24.3125 10.875ZM23.5625 11.1562L23.6455 10.1597C23.5698 10.1534 23.5321 10.1407 23.5205 10.136C23.5115 10.1324 23.5221 10.1355 23.5376 10.1508C23.5532 10.1661 23.5562 10.1764 23.5523 10.1672C23.5473 10.1552 23.5339 10.1173 23.5263 10.0411L22.5312 10.1406L21.5362 10.2401C21.5836 10.7138 21.7514 11.1987 22.1342 11.5758C22.5173 11.953 23.0048 12.1132 23.4795 12.1528L23.5625 11.1562ZM27.7344 1.5L27.7714 0.500685L27.7529 0.5H27.7344V1.5ZM28.4531 1.8125L27.746 2.51961L27.7556 2.52916L27.7654 2.53845L28.4531 1.8125ZM28.7656 2.51562H29.7656V2.49711L29.7649 2.47861L28.7656 2.51562ZM28.7656 10.1719L29.7607 10.2714L29.7656 10.2218V10.1719H28.7656ZM27.7344 11.1875V12.1875H27.776L27.8174 12.184L27.7344 11.1875ZM26.9688 10.9062L26.28 11.6312L26.2985 11.6489L26.318 11.6655L26.9688 10.9062ZM26.6562 2.51562L25.6569 2.47993L25.6562 2.49777V2.51562H26.6562ZM26.9844 1.79688L27.6533 2.54017L27.6634 2.53116L27.6731 2.52187L26.9844 1.79688ZM27.7344 1.5L27.6974 2.49931C27.7111 2.49982 27.7192 2.50127 27.7226 2.50204C27.726 2.50277 27.7268 2.50324 27.7263 2.50301C27.7257 2.50277 27.7264 2.50294 27.7287 2.50454C27.7311 2.50622 27.737 2.5106 27.746 2.51961L28.4531 1.8125L29.1602 1.10539C28.7827 0.7279 28.3033 0.520387 27.7714 0.500685L27.7344 1.5ZM28.4531 1.8125L27.7654 2.53845C27.7709 2.54372 27.7721 2.54573 27.7709 2.5441C27.7697 2.54236 27.7677 2.53911 27.7659 2.53504C27.7641 2.53102 27.7637 2.52901 27.764 2.53041C27.7644 2.53199 27.7658 2.53894 27.7663 2.55264L28.7656 2.51562L29.7649 2.47861C29.7452 1.94521 29.5355 1.46045 29.1409 1.08655L28.4531 1.8125ZM28.7656 2.51562H27.7656V10.1719H28.7656H29.7656V2.51562H28.7656ZM28.7656 10.1719L27.7706 10.0724C27.763 10.1485 27.7496 10.1864 27.7446 10.1984C27.7407 10.2077 27.7437 10.1974 27.7592 10.182C27.7748 10.1667 27.7853 10.1637 27.7764 10.1673C27.7648 10.172 27.7271 10.1846 27.6513 10.191L27.7344 11.1875L27.8174 12.184C28.292 12.1445 28.7796 11.9843 29.1626 11.607C29.5455 11.2299 29.7133 10.745 29.7607 10.2714L28.7656 10.1719ZM27.7344 11.1875V10.1875C27.6782 10.1875 27.6546 10.177 27.6195 10.147L26.9688 10.9062L26.318 11.6655C26.7204 12.0105 27.2072 12.1875 27.7344 12.1875V11.1875ZM26.9688 10.9062L27.6575 10.1813C27.6501 10.1742 27.6481 10.171 27.649 10.1723C27.65 10.1738 27.6523 10.1775 27.6545 10.1827C27.6555 10.1851 27.6563 10.1872 27.6568 10.1889C27.6573 10.1906 27.6575 10.1914 27.6574 10.1912C27.6574 10.191 27.6562 10.1851 27.6562 10.1719H26.6562H25.6562C25.6562 10.733 25.8696 11.2414 26.28 11.6312L26.9688 10.9062ZM26.6562 10.1719H27.6562V2.51562H26.6562H25.6562V10.1719H26.6562ZM26.6562 2.51562L27.6556 2.55132C27.6562 2.53603 27.6577 2.52831 27.6581 2.52661C27.6585 2.52513 27.658 2.52762 27.6558 2.53248C27.6535 2.5374 27.6509 2.54155 27.649 2.54413C27.6472 2.54658 27.6479 2.54511 27.6533 2.54017L26.9844 1.79688L26.3154 1.05358C25.8965 1.43064 25.6765 1.92991 25.6569 2.47993L26.6562 2.51562ZM26.9844 1.79688L27.6731 2.52187C27.6828 2.51268 27.6892 2.50817 27.6921 2.50631C27.6948 2.50452 27.696 2.5041 27.6962 2.50403C27.6964 2.50395 27.6983 2.50316 27.7032 2.50227C27.7082 2.50135 27.7182 2.5 27.7344 2.5V1.5V0.5C27.1906 0.5 26.6929 0.694474 26.2956 1.07188L26.9844 1.79688ZM33.9531 10.9688L33.9191 11.9682L33.9361 11.9688H33.9531V10.9688ZM31.875 10.3281L31.22 11.0839L31.2298 11.0922L31.875 10.3281ZM30.8594 8.96875L29.9335 9.34666L29.9363 9.35337L30.8594 8.96875ZM30.8438 5.85938L29.9179 5.48146L29.9139 5.49133L30.8438 5.85938ZM31.8594 4.5L32.5046 5.26403L32.5061 5.26276L31.8594 4.5ZM33.6719 3.875V2.875H33.6647L33.6576 2.8751L33.6719 3.875ZM40.3438 4.17188L39.6366 4.87898L39.6552 4.89758L39.6748 4.91517L40.3438 4.17188ZM40.3438 5.57812L41.0315 6.30408L41.0325 6.30312L40.3438 5.57812ZM33.1562 6.09375L32.4946 5.34391L32.4833 5.35389L32.4723 5.36421L33.1562 6.09375ZM32.7812 6.70312L31.8326 6.3869L31.8266 6.4049L31.8212 6.42313L32.7812 6.70312ZM32.7812 8.20312L31.8212 8.48312L31.8266 8.50135L31.8326 8.51935L32.7812 8.20312ZM33.1562 8.8125L32.4723 9.54204L32.4957 9.56401L32.5205 9.58443L33.1562 8.8125ZM33.7656 9.04688L33.7202 10.0458L33.7429 10.0469H33.7656V9.04688ZM40.3438 9.32812L39.656 10.0541L39.6653 10.0629L39.6748 10.0714L40.3438 9.32812ZM40.3438 10.6875L39.6748 9.94421L39.6653 9.95276L39.656 9.96155L40.3438 10.6875ZM40.2031 7.90625L39.5674 7.13432L39.5577 7.14232L39.5482 7.15056L40.2031 7.90625ZM33.8906 7.90625L33.2321 8.65883L33.2459 8.67085L33.26 8.68236L33.8906 7.90625ZM33.8906 6.89062L33.26 6.11451L33.2459 6.12602L33.2321 6.13805L33.8906 6.89062ZM40.2188 6.90625L39.5602 7.65883L39.574 7.67085L39.5882 7.68236L40.2188 6.90625ZM33.9531 10.9688L33.9872 9.96933C33.1886 9.9421 32.7508 9.75884 32.5202 9.5641L31.875 10.3281L31.2298 11.0922C31.9367 11.6891 32.8844 11.9329 33.9191 11.9682L33.9531 10.9688ZM31.875 10.3281L32.5299 9.57244C32.161 9.25272 31.9232 8.92194 31.7825 8.58413L30.8594 8.96875L29.9363 9.35337C30.2122 10.0156 30.6515 10.591 31.2201 11.0838L31.875 10.3281ZM30.8594 8.96875L31.7852 8.59085C31.623 8.19329 31.5469 7.80566 31.5469 7.42188H30.5469H29.5469C29.5469 8.07976 29.6791 8.72337 29.9335 9.34665L30.8594 8.96875ZM30.5469 7.42188H31.5469C31.5469 7.00528 31.6224 6.60939 31.7736 6.22742L30.8438 5.85938L29.9139 5.49133C29.6693 6.10936 29.5469 6.75514 29.5469 7.42188H30.5469ZM30.8438 5.85938L31.7696 6.23727C31.9103 5.89258 32.145 5.56764 32.5046 5.26403L31.8594 4.5L31.2142 3.73597C30.6362 4.22403 30.1939 4.80534 29.9179 5.48148L30.8438 5.85938ZM31.8594 4.5L32.5061 5.26276C32.7805 5.03005 33.1497 4.88256 33.6862 4.8749L33.6719 3.875L33.6576 2.8751C32.7357 2.88827 31.8965 3.15745 31.2127 3.73724L31.8594 4.5ZM33.6719 3.875V4.875H39.6094V3.875V2.875H33.6719V3.875ZM39.6094 3.875V4.875C39.6256 4.875 39.6347 4.87636 39.6379 4.87696C39.641 4.87753 39.6402 4.87763 39.6369 4.87633C39.6336 4.875 39.6309 4.87344 39.6296 4.87254C39.6283 4.87171 39.6308 4.87313 39.6366 4.87898L40.3438 4.17188L41.0509 3.46477C40.6568 3.0707 40.1538 2.875 39.6094 2.875V3.875ZM40.3438 4.17188L39.6748 4.91517C39.6823 4.92191 39.6832 4.9239 39.6805 4.92031C39.6776 4.9165 39.6727 4.909 39.6678 4.89818C39.6628 4.8873 39.6596 4.87673 39.6577 4.86802C39.656 4.85952 39.6562 4.85607 39.6562 4.85938H40.6562H41.6562C41.6562 4.294 41.4234 3.7982 41.0127 3.42858L40.3438 4.17188ZM40.6562 4.85938H39.6562C39.6562 4.86769 39.6555 4.86953 39.6561 4.86638C39.6568 4.86305 39.6583 4.85754 39.6611 4.85127C39.6638 4.84504 39.6662 4.84134 39.6667 4.84064C39.6671 4.84012 39.6641 4.84449 39.655 4.85313L40.3438 5.57812L41.0325 6.30312C41.4347 5.92105 41.6562 5.42139 41.6562 4.85938H40.6562ZM40.3438 5.57812L39.656 4.85217C39.6513 4.85665 39.6494 4.8577 39.6503 4.8571C39.6513 4.85646 39.6529 4.85567 39.6541 4.85521C39.6552 4.85478 39.6534 4.85565 39.6472 4.85673C39.6408 4.85784 39.6286 4.85938 39.6094 4.85938V5.85938V6.85938C40.1373 6.85938 40.6341 6.68059 41.0315 6.30408L40.3438 5.57812ZM39.6094 5.85938V4.85938H33.7656V5.85938V6.85938H39.6094V5.85938ZM33.7656 5.85938V4.85938C33.2848 4.85938 32.8483 5.03186 32.4946 5.34391L33.1562 6.09375L33.8179 6.84359C33.8219 6.84002 33.8223 6.84026 33.8187 6.84247C33.815 6.84475 33.8088 6.84809 33.8004 6.85131C33.792 6.85455 33.7837 6.85678 33.7765 6.85808C33.7693 6.85937 33.7654 6.85938 33.7656 6.85938V5.85938ZM33.1562 6.09375L32.4723 5.36421C32.167 5.65047 31.9603 6.00365 31.8326 6.3869L32.7812 6.70312L33.7299 7.01935C33.7689 6.9026 33.8122 6.84953 33.8402 6.82329L33.1562 6.09375ZM32.7812 6.70312L31.8212 6.42313C31.7241 6.75624 31.6719 7.09531 31.6719 7.4375H32.6719H33.6719C33.6719 7.30052 33.6926 7.15001 33.7413 6.98312L32.7812 6.70312ZM32.6719 7.4375H31.6719C31.6719 7.79267 31.7218 8.14216 31.8212 8.48312L32.7812 8.20312L33.7413 7.92313C33.6949 7.76409 33.6719 7.60316 33.6719 7.4375H32.6719ZM32.7812 8.20312L31.8326 8.51935C31.9603 8.9026 32.167 9.25578 32.4723 9.54204L33.1562 8.8125L33.8402 8.08296C33.8122 8.05672 33.7689 8.00365 33.7299 7.8869L32.7812 8.20312ZM33.1562 8.8125L32.5205 9.58443C32.8646 9.86781 33.2749 10.0256 33.7202 10.0458L33.7656 9.04688L33.811 8.04791C33.8039 8.04758 33.8002 8.04689 33.7993 8.0467C33.7985 8.04654 33.7991 8.04661 33.8004 8.04712C33.8017 8.04764 33.8022 8.04797 33.8015 8.04755C33.8007 8.04709 33.7975 8.04514 33.792 8.04057L33.1562 8.8125ZM33.7656 9.04688V10.0469H39.6094V9.04688V8.04688H33.7656V9.04688ZM39.6094 9.04688V10.0469C39.6286 10.0469 39.6408 10.0484 39.6472 10.0495C39.6534 10.0506 39.6552 10.0515 39.6541 10.051C39.6529 10.0506 39.6513 10.0498 39.6503 10.0491C39.6494 10.0486 39.6513 10.0496 39.656 10.0541L40.3438 9.32812L41.0315 8.60217C40.6341 8.22566 40.1373 8.04688 39.6094 8.04688V9.04688ZM40.3438 9.32812L39.6748 10.0714C39.6923 10.0872 39.6833 10.084 39.6714 10.0584C39.6659 10.0466 39.6617 10.0339 39.6591 10.0218C39.6565 10.0098 39.6562 10.002 39.6562 10H40.6562H41.6562C41.6562 9.43265 41.4137 8.9457 41.0127 8.58483L40.3438 9.32812ZM40.6562 10H39.6562C39.6562 10.0033 39.656 9.99986 39.6577 9.99136C39.6596 9.98264 39.6628 9.97208 39.6678 9.9612C39.6727 9.95038 39.6776 9.94287 39.6805 9.93906C39.6832 9.93547 39.6823 9.93746 39.6748 9.94421L40.3438 10.6875L41.0127 11.4308C41.4234 11.0612 41.6562 10.5654 41.6562 10H40.6562ZM40.3438 10.6875L39.656 9.96155C39.6513 9.96602 39.6494 9.96707 39.6503 9.96648C39.6513 9.96583 39.6529 9.96504 39.6541 9.96458C39.6552 9.96415 39.6534 9.96502 39.6472 9.9661C39.6408 9.96721 39.6286 9.96875 39.6094 9.96875V10.9688V11.9688C40.1373 11.9688 40.6341 11.79 41.0315 11.4135L40.3438 10.6875ZM39.6094 10.9688V9.96875H33.9531V10.9688V11.9688H39.6094V10.9688ZM40.4688 7.39062H39.4688C39.4688 7.33418 39.4829 7.26914 39.5134 7.21001C39.5418 7.15482 39.5703 7.13192 39.5674 7.13432L40.2031 7.90625L40.8388 8.67818C41.2056 8.37616 41.4688 7.93671 41.4688 7.39062H40.4688ZM40.2031 7.90625L39.5482 7.15056C39.5572 7.14271 39.5682 7.13477 39.5806 7.12766C39.593 7.12056 39.6045 7.11563 39.6138 7.11243C39.633 7.10588 39.6348 7.10938 39.6094 7.10938V8.10938V9.10938C40.0491 9.10938 40.4916 8.97954 40.8581 8.66194L40.2031 7.90625ZM39.6094 8.10938V7.10938H34.5V8.10938V9.10938H39.6094V8.10938ZM34.5 8.10938V7.10938C34.475 7.10938 34.4724 7.10599 34.4842 7.10991C34.4897 7.11174 34.4966 7.1146 34.5039 7.11864C34.5112 7.12267 34.5171 7.12681 34.5212 7.13014L33.8906 7.90625L33.26 8.68236C33.6257 8.97945 34.059 9.10938 34.5 9.10938V8.10938ZM33.8906 7.90625L34.5491 7.15367C34.5507 7.15505 34.5776 7.17944 34.6029 7.2317C34.6296 7.28672 34.6406 7.34408 34.6406 7.39062H33.6406H32.6406C32.6406 7.91315 32.8773 8.34835 33.2321 8.65883L33.8906 7.90625ZM33.6406 7.39062H34.6406C34.6406 7.45111 34.6258 7.51579 34.5976 7.57221C34.5713 7.62471 34.5455 7.64642 34.5491 7.6432L33.8906 6.89062L33.2321 6.13805C32.8917 6.43596 32.6406 6.86192 32.6406 7.39062H33.6406ZM33.8906 6.89062L34.5212 7.66674C34.5171 7.67007 34.5112 7.6742 34.5039 7.67823C34.4966 7.68227 34.4897 7.68513 34.4842 7.68696C34.4724 7.69088 34.475 7.6875 34.5 7.6875V6.6875V5.6875C34.059 5.6875 33.6257 5.81742 33.26 6.11451L33.8906 6.89062ZM34.5 6.6875V7.6875H39.6094V6.6875V5.6875H34.5V6.6875ZM39.6094 6.6875V7.6875C39.6266 7.6875 39.6216 7.68988 39.6035 7.68338C39.5951 7.68035 39.5862 7.67623 39.5778 7.67123C39.5694 7.66626 39.5635 7.66168 39.5602 7.65883L40.2188 6.90625L40.8773 6.15367C40.5128 5.83476 40.0697 5.6875 39.6094 5.6875V6.6875ZM40.2188 6.90625L39.5882 7.68236C39.5837 7.67875 39.5496 7.6495 39.5176 7.58755C39.4837 7.52186 39.4688 7.45117 39.4688 7.39062H40.4688H41.4688C41.4688 6.85603 41.2115 6.42442 40.8493 6.13014L40.2188 6.90625ZM46.8281 3.82812L46.4864 4.76796L46.4953 4.77112L46.8281 3.82812ZM47.8438 4.375L48.5509 3.66789L48.4988 3.6158L48.4396 3.5719L47.8438 4.375ZM48.0156 4.53125L47.3754 5.29947L48.077 5.8841L48.7227 5.23836L48.0156 4.53125ZM48.1875 4.375L47.5917 3.5719L47.569 3.58871L47.5473 3.60678L48.1875 4.375ZM49.1875 3.82812L48.8547 2.88509L48.8458 2.88833L49.1875 3.82812ZM51.3125 3.82812L50.9707 4.76796L50.9797 4.77112L51.3125 3.82812ZM52.3125 4.39062L51.6878 5.17149L51.702 5.18287L51.7167 5.19372L52.3125 4.39062ZM53.1562 5.35938L52.2949 5.86736L52.2997 5.87546L52.3046 5.88347L53.1562 5.35938ZM53.5312 10.1406L54.5263 10.2401L54.5312 10.1905V10.1406H53.5312ZM52.5 11.1562V12.1562H52.5416L52.583 12.1528L52.5 11.1562ZM51.7344 10.875L51.0456 11.6L51.0642 11.6176L51.0836 11.6343L51.7344 10.875ZM51.2812 6.3125L50.3975 6.78039L50.4034 6.79165L50.4097 6.80276L51.2812 6.3125ZM50.9688 5.90625L50.2961 6.64619L50.3154 6.66371L50.3355 6.68021L50.9688 5.90625ZM50.6094 5.6875L50.2248 6.61058L50.2585 6.62463L50.2931 6.63618L50.6094 5.6875ZM49.8594 5.6875L50.2011 6.62729L50.2227 6.61943L50.244 6.61058L49.8594 5.6875ZM49.5156 5.90625L50.1489 6.68021L50.169 6.66371L50.1883 6.64619L49.5156 5.90625ZM49.2031 6.3125L50.0747 6.80276L50.0809 6.79165L50.0869 6.78039L49.2031 6.3125ZM49.0469 6.9375L48.0477 6.89587L48.0469 6.91668V6.9375H49.0469ZM49.0469 10.1406L50.0419 10.2401L50.0469 10.1905V10.1406H49.0469ZM48.0156 11.1562V12.1562H48.0572L48.0987 12.1528L48.0156 11.1562ZM47.25 10.875L46.5613 11.6L46.5798 11.6176L46.5992 11.6343L47.25 10.875ZM46.7969 6.3125L45.9131 6.78039L45.9191 6.79165L45.9253 6.80276L46.7969 6.3125ZM46.4844 5.90625L45.8117 6.64619L45.831 6.66371L45.8511 6.68021L46.4844 5.90625ZM46.125 5.6875L45.7404 6.61058L45.7741 6.62463L45.8088 6.63618L46.125 5.6875ZM45.375 5.6875L45.7167 6.62729L45.7384 6.61943L45.7596 6.61058L45.375 5.6875ZM45.0312 5.90625L45.6645 6.68021L45.6846 6.66371L45.7039 6.64619L45.0312 5.90625ZM44.7188 6.3125L45.5903 6.80276L45.5966 6.79165L45.6025 6.78039L44.7188 6.3125ZM44.5625 6.9375L43.5634 6.89587L43.5625 6.91668V6.9375H44.5625ZM44.5625 10.1406L45.559 10.2237L45.5625 10.1822V10.1406H44.5625ZM43.5469 11.1562V12.1562H43.5885L43.6299 12.1528L43.5469 11.1562ZM42.7812 10.875L42.0925 11.6L42.111 11.6176L42.1305 11.6343L42.7812 10.875ZM42.4688 6.8125L41.4694 6.77549L41.4688 6.79399V6.8125H42.4688ZM43.7031 4.39062L44.299 5.19372L44.3072 5.18762L44.3153 5.18135L43.7031 4.39062ZM44.7031 3.82812L44.3703 2.88509L44.3614 2.88833L44.7031 3.82812ZM45.7656 3.64062V4.64062C46.0133 4.64062 46.2518 4.68262 46.4864 4.76792L46.8281 3.82812L47.1699 2.88833C46.7169 2.72363 46.2471 2.64062 45.7656 2.64062V3.64062ZM46.8281 3.82812L46.4953 4.77112C46.7489 4.86061 46.9995 4.99382 47.2479 5.1781L47.8438 4.375L48.4396 3.5719C48.0421 3.27701 47.6157 3.04564 47.1609 2.88513L46.8281 3.82812ZM47.8438 4.375L47.1366 5.08211C47.2122 5.15764 47.2921 5.23001 47.3754 5.29947L48.0156 4.53125L48.6558 3.76303C48.6142 3.72832 48.5795 3.69653 48.5509 3.66789L47.8438 4.375ZM48.0156 4.53125L48.7227 5.23836C48.7514 5.20972 48.786 5.17793 48.8277 5.14322L48.1875 4.375L47.5473 3.60678C47.464 3.67624 47.384 3.74861 47.3085 3.82414L48.0156 4.53125ZM48.1875 4.375L48.7833 5.1781C49.0363 4.99046 49.2849 4.85678 49.5292 4.76792L49.1875 3.82812L48.8458 2.88833C48.4026 3.04947 47.9846 3.28038 47.5917 3.5719L48.1875 4.375ZM49.1875 3.82812L49.5203 4.77112C49.7741 4.68155 50.0159 4.64062 50.25 4.64062V3.64062V2.64062C49.7758 2.64062 49.3092 2.7247 48.8547 2.88513L49.1875 3.82812ZM50.25 3.64062V4.64062C50.4976 4.64062 50.7362 4.68262 50.9708 4.76792L51.3125 3.82812L51.6542 2.88833C51.2013 2.72363 50.7315 2.64062 50.25 2.64062V3.64062ZM51.3125 3.82812L50.9797 4.77112C51.2214 4.85643 51.4571 4.9869 51.6878 5.17149L52.3125 4.39062L52.9372 3.60976C52.5429 3.29435 52.1119 3.04982 51.6453 2.88513L51.3125 3.82812ZM52.3125 4.39062L51.7167 5.19372C51.9153 5.34112 52.1116 5.5566 52.2949 5.86736L53.1562 5.35938L54.0176 4.85139C53.7217 4.34965 53.3555 3.91929 52.9083 3.58753L52.3125 4.39062ZM53.1562 5.35938L52.3046 5.88347C52.4414 6.10578 52.5312 6.40149 52.5312 6.8125H53.5312H54.5312C54.5312 6.09851 54.3711 5.42547 54.0079 4.83528L53.1562 5.35938ZM53.5312 6.8125H52.5312V10.1406H53.5312H54.5312V6.8125H53.5312ZM53.5312 10.1406L52.5362 10.0411C52.5286 10.1173 52.5152 10.1552 52.5102 10.1672C52.5063 10.1764 52.5093 10.1661 52.5249 10.1508C52.5404 10.1355 52.551 10.1324 52.542 10.136C52.5304 10.1407 52.4927 10.1534 52.417 10.1597L52.5 11.1562L52.583 12.1528C53.0577 12.1132 53.5452 11.953 53.9283 11.5758C54.3111 11.1987 54.4789 10.7138 54.5263 10.2401L53.5312 10.1406ZM52.5 11.1562V10.1562C52.4438 10.1562 52.4202 10.1458 52.3852 10.1157L51.7344 10.875L51.0836 11.6343C51.486 11.9792 51.9729 12.1562 52.5 12.1562V11.1562ZM51.7344 10.875L52.4231 10.15C52.4157 10.1429 52.4137 10.1398 52.4146 10.1411C52.4157 10.1426 52.4179 10.1462 52.4202 10.1514C52.4212 10.1538 52.4219 10.1559 52.4224 10.1576C52.4229 10.1593 52.4231 10.1602 52.4231 10.16C52.423 10.1598 52.4219 10.1538 52.4219 10.1406H51.4219H50.4219C50.4219 10.7017 50.6352 11.2101 51.0456 11.6L51.7344 10.875ZM51.4219 10.1406H52.4219V6.9375H51.4219H50.4219V10.1406H51.4219ZM51.4219 6.9375H52.4219C52.4219 6.56703 52.3528 6.17769 52.1528 5.82224L51.2812 6.3125L50.4097 6.80276C50.3972 6.78064 50.4219 6.80797 50.4219 6.9375H51.4219ZM51.2812 6.3125L52.165 5.84461C52.0297 5.58898 51.8491 5.33449 51.602 5.13229L50.9688 5.90625L50.3355 6.68021C50.3253 6.67187 50.3278 6.67172 50.3402 6.68784C50.3527 6.70407 50.3725 6.73333 50.3975 6.78039L51.2812 6.3125ZM50.9688 5.90625L51.6414 5.16631C51.4417 4.98473 51.2037 4.83153 50.9256 4.73882L50.6094 5.6875L50.2931 6.63618C50.2868 6.63406 50.2818 6.63196 50.2782 6.6303C50.2747 6.62865 50.273 6.62759 50.273 6.62764C50.2732 6.62774 50.2811 6.63259 50.2961 6.64619L50.9688 5.90625ZM50.6094 5.6875L50.994 4.76442C50.7574 4.66583 50.5021 4.60938 50.2344 4.60938V5.60938V6.60938C50.2269 6.60938 50.2211 6.60854 50.2179 6.60789C50.215 6.60727 50.2171 6.60738 50.2248 6.61058L50.6094 5.6875ZM50.2344 5.60938V4.60938C49.9667 4.60938 49.7114 4.66583 49.4748 4.76442L49.8594 5.6875L50.244 6.61058C50.2517 6.60738 50.2538 6.60727 50.2508 6.60789C50.2477 6.60854 50.2419 6.60938 50.2344 6.60938V5.60938ZM49.8594 5.6875L49.5176 4.74771C49.2526 4.84407 49.0288 4.99733 48.843 5.16631L49.5156 5.90625L50.1883 6.64619C50.2091 6.62727 50.2214 6.61902 50.2244 6.6171C50.2272 6.61532 50.2194 6.62064 50.2011 6.62729L49.8594 5.6875ZM49.5156 5.90625L48.8824 5.13229C48.6353 5.33449 48.4547 5.58898 48.3193 5.84461L49.2031 6.3125L50.0869 6.78039C50.1118 6.73333 50.1317 6.70407 50.1442 6.68784C50.1566 6.67172 50.1591 6.67187 50.1489 6.68021L49.5156 5.90625ZM49.2031 6.3125L48.3315 5.82224C48.1404 6.16203 48.0628 6.53518 48.0477 6.89587L49.0469 6.9375L50.046 6.97913C50.0518 6.83982 50.0783 6.79631 50.0747 6.80276L49.2031 6.3125ZM49.0469 6.9375H48.0469V10.1406H49.0469H50.0469V6.9375H49.0469ZM49.0469 10.1406L48.0518 10.0411C48.0442 10.1173 48.0309 10.1552 48.0258 10.1672C48.0219 10.1764 48.0249 10.1661 48.0405 10.1508C48.0561 10.1355 48.0666 10.1324 48.0577 10.136C48.046 10.1407 48.0083 10.1534 47.9326 10.1597L48.0156 11.1562L48.0987 12.1528C48.5733 12.1132 49.0608 11.953 49.4439 11.5758C49.8268 11.1987 49.9945 10.7138 50.0419 10.2401L49.0469 10.1406ZM48.0156 11.1562V10.1562C47.9594 10.1562 47.9359 10.1458 47.9008 10.1157L47.25 10.875L46.5992 11.6343C47.0016 11.9792 47.4885 12.1562 48.0156 12.1562V11.1562ZM47.25 10.875L47.9387 10.15C47.9313 10.1429 47.9293 10.1398 47.9302 10.1411C47.9313 10.1426 47.9336 10.1462 47.9358 10.1514C47.9368 10.1538 47.9375 10.1559 47.9381 10.1576C47.9386 10.1593 47.9387 10.1602 47.9387 10.16C47.9387 10.1598 47.9375 10.1538 47.9375 10.1406H46.9375H45.9375C45.9375 10.7017 46.1508 11.2101 46.5613 11.6L47.25 10.875ZM46.9375 10.1406H47.9375V6.9375H46.9375H45.9375V10.1406H46.9375ZM46.9375 6.9375H47.9375C47.9375 6.56703 47.8684 6.17769 47.6685 5.82224L46.7969 6.3125L45.9253 6.80276C45.9129 6.78064 45.9375 6.80797 45.9375 6.9375H46.9375ZM46.7969 6.3125L47.6807 5.84461C47.5453 5.58898 47.3647 5.33449 47.1176 5.13229L46.4844 5.90625L45.8511 6.68021C45.8409 6.67187 45.8434 6.67172 45.8558 6.68784C45.8683 6.70407 45.8882 6.73333 45.9131 6.78039L46.7969 6.3125ZM46.4844 5.90625L47.157 5.16631C46.9573 4.98473 46.7194 4.83153 46.4412 4.73882L46.125 5.6875L45.8088 6.63618C45.8024 6.63406 45.7974 6.63196 45.7938 6.6303C45.7903 6.62865 45.7886 6.62759 45.7886 6.62764C45.7888 6.62774 45.7967 6.63259 45.8117 6.64619L46.4844 5.90625ZM46.125 5.6875L46.5096 4.76442C46.273 4.66583 46.0177 4.60938 45.75 4.60938V5.60938V6.60938C45.7425 6.60938 45.7367 6.60854 45.7335 6.60789C45.7306 6.60727 45.7327 6.60738 45.7404 6.61058L46.125 5.6875ZM45.75 5.60938V4.60938C45.4823 4.60938 45.227 4.66583 44.9904 4.76442L45.375 5.6875L45.7596 6.61058C45.7673 6.60738 45.7694 6.60727 45.7665 6.60789C45.7633 6.60854 45.7575 6.60938 45.75 6.60938V5.60938ZM45.375 5.6875L45.0333 4.74771C44.7683 4.84407 44.5445 4.99733 44.3586 5.16631L45.0312 5.90625L45.7039 6.64619C45.7247 6.62727 45.737 6.61902 45.74 6.6171C45.7428 6.61532 45.735 6.62064 45.7167 6.62729L45.375 5.6875ZM45.0312 5.90625L44.398 5.13229C44.1509 5.33449 43.9703 5.58898 43.835 5.84461L44.7188 6.3125L45.6025 6.78039C45.6275 6.73333 45.6473 6.70407 45.6598 6.68784C45.6722 6.67172 45.6747 6.67187 45.6645 6.68021L45.0312 5.90625ZM44.7188 6.3125L43.8472 5.82224C43.656 6.16203 43.5784 6.53518 43.5634 6.89587L44.5625 6.9375L45.5616 6.97913C45.5674 6.83982 45.594 6.79631 45.5903 6.80276L44.7188 6.3125ZM44.5625 6.9375H43.5625V10.1406H44.5625H45.5625V6.9375H44.5625ZM44.5625 10.1406L43.566 10.0576C43.5596 10.1333 43.547 10.17 43.543 10.18C43.5401 10.1871 43.5445 10.1741 43.5624 10.1562C43.5803 10.1383 43.5933 10.1338 43.5862 10.1367C43.5762 10.1408 43.5396 10.1534 43.4638 10.1597L43.5469 11.1562L43.6299 12.1528C44.104 12.1133 44.5941 11.9529 44.9766 11.5704C45.3591 11.1879 45.5195 10.6977 45.559 10.2237L44.5625 10.1406ZM43.5469 11.1562V10.1562C43.4907 10.1562 43.4671 10.1458 43.432 10.1157L42.7812 10.875L42.1305 11.6343C42.5329 11.9792 43.0197 12.1562 43.5469 12.1562V11.1562ZM42.7812 10.875L43.47 10.15C43.4626 10.1429 43.4606 10.1398 43.4615 10.1411C43.4625 10.1426 43.4648 10.1462 43.467 10.1514C43.468 10.1538 43.4688 10.1559 43.4693 10.1576C43.4698 10.1593 43.47 10.1602 43.4699 10.16C43.4699 10.1598 43.4688 10.1538 43.4688 10.1406H42.4688H41.4688C41.4688 10.7017 41.6821 11.2101 42.0925 11.6L42.7812 10.875ZM42.4688 10.1406H43.4688V6.8125H42.4688H41.4688V10.1406H42.4688ZM42.4688 6.8125L43.4681 6.84951C43.4839 6.42099 43.5805 6.10524 43.7207 5.86736L42.8594 5.35938L41.998 4.85139C41.6591 5.42601 41.4952 6.07901 41.4694 6.77549L42.4688 6.8125ZM42.8594 5.35938L43.7207 5.86736C43.904 5.5566 44.1003 5.34112 44.299 5.19372L43.7031 4.39062L43.1073 3.58753C42.6601 3.91929 42.2939 4.34965 41.998 4.85139L42.8594 5.35938ZM43.7031 4.39062L44.3153 5.18135C44.5658 4.98744 44.809 4.85367 45.0449 4.76792L44.7031 3.82812L44.3614 2.88833C43.9097 3.05258 43.4863 3.29381 43.091 3.5999L43.7031 4.39062ZM44.7031 3.82812L45.0359 4.77112C45.2897 4.68155 45.5315 4.64062 45.7656 4.64062V3.64062V2.64062C45.2914 2.64062 44.8249 2.7247 44.3703 2.88513L44.7031 3.82812Z" mask="url(#path-1-outside-1_2937_4368)"/></svg>